HIERARCHY
ROOT hip
{
  OFFSET 0 0 0
  CHANNELS 6 Xposition Yposition Zposition Zrotation Yrotation Xrotation
  JOINT abdomen
  {
    OFFSET 0 20.6881 -0.73152
    CHANNELS 3 Zrotation Xrotation Yrotation
    JOINT chest
    {
      OFFSET 0 11.7043 -0.48768
      CHANNELS 3 Zrotation Xrotation Yrotation
      JOINT neck
      {
        OFFSET 0 22.1894 -2.19456
        CHANNELS 3 Zrotation Xrotation Yrotation
        JOINT head
        {
          OFFSET -0.24384 7.07133 1.2192
          CHANNELS 3 Zrotation Xrotation Yrotation
          JOINT leftEye
          {
            OFFSET 4.14528 8.04674 8.04672
            CHANNELS 3 Zrotation Xrotation Yrotation
            End Site
            {
              OFFSET 1 0 0
            }
          }
          JOINT rightEye
          {
            OFFSET -3.6576 8.04674 8.04672
            CHANNELS 3 Zrotation Xrotation Yrotation
            End Site
            {
              OFFSET 1 0 0
            }
          }
        }
      }
      JOINT rCollar
      {
        OFFSET -2.68224 19.2634 -4.8768
        CHANNELS 3 Zrotation Xrotation Yrotation
        JOINT rShldr
        {
          OFFSET -8.77824 -1.95073 1.46304
          CHANNELS 3 Zrotation Xrotation Yrotation
          JOINT rForeArm
          {
            OFFSET -28.1742 -1.7115 0.48768
            CHANNELS 3 Zrotation Xrotation Yrotation
            JOINT rHand
            {
              OFFSET -22.5879 0.773209 7.07136
              CHANNELS 3 Zrotation Xrotation Yrotation
              JOINT rThumb1
              {
                OFFSET -1.2192 -0.487915 3.41376
                CHANNELS 3 Zrotation Xrotation Yrotation
                JOINT rThumb2
                {
                  OFFSET -3.37035 -0.52449 3.41376
                  CHANNELS 3 Zrotation Xrotation Yrotation
                  End Site
                  {
                    OFFSET -1.78271 -1.18214 1.43049
                  }
                }
              }
              JOINT rIndex1
              {
                OFFSET -7.75947 0.938293 5.60832
                CHANNELS 3 Zrotation Xrotation Yrotation
                JOINT rIndex2
                {
                  OFFSET -2.54057 -0.884171 1.56538
                  CHANNELS 3 Zrotation Xrotation Yrotation
                  End Site
                  {
                    OFFSET -1.62519 -0.234802 1.16502
                  }
                }
              }
              JOINT rMid1
              {
                OFFSET -8.24714 1.18213 3.41376
                CHANNELS 3 Zrotation Xrotation Yrotation
                JOINT rMid2
                {
                  OFFSET -3.10165 -0.590103 1.0647
                  CHANNELS 3 Zrotation Xrotation Yrotation
                  End Site
                  {
                    OFFSET -2.48547 -0.328903 0.83742
                  }
                }
              }
              JOINT rRing1
              {
                OFFSET -8.82822 0.546677 1.51678
                CHANNELS 3 Zrotation Xrotation Yrotation
                JOINT rRing2
                {
                  OFFSET -2.60934 -0.819778 -0.0198488
                  CHANNELS 3 Zrotation Xrotation Yrotation
                  End Site
                  {
                    OFFSET -2.33842 -0.294052 0.168128
                  }
                }
              }
              JOINT rPinky1
              {
                OFFSET -8.27202 -0.0477905 -0.4584
                CHANNELS 3 Zrotation Xrotation Yrotation
                JOINT rPinky2
                {
                  OFFSET -1.82734 -0.647385 -0.700984
                  CHANNELS 3 Zrotation Xrotation Yrotation
                  End Site
                  {
                    OFFSET -1.69225 -0.51767 -0.607171
                  }
                }
              }
            }
          }
        }
      }
      JOINT lCollar
      {
        OFFSET 2.68224 19.2634 -4.8768
        CHANNELS 3 Zrotation Xrotation Yrotation
        JOINT lShldr
        {
          OFFSET 8.77824 -1.95073 1.46304
          CHANNELS 3 Zrotation Xrotation Yrotation
          JOINT lForeArm
          {
            OFFSET 28.1742 -1.7115 0.48768
            CHANNELS 3 Zrotation Xrotation Yrotation
            JOINT lHand
            {
              OFFSET 22.5879 0.773209 7.07136
              CHANNELS 3 Zrotation Xrotation Yrotation
              JOINT lThumb1
              {
                OFFSET 1.2192 -0.487915 3.41376
                CHANNELS 3 Zrotation Xrotation Yrotation
                JOINT lThumb2
                {
                  OFFSET 3.37035 -0.52449 3.41376
                  CHANNELS 3 Zrotation Xrotation Yrotation
                  End Site
                  {
                    OFFSET 1.78271 -1.18214 1.43049
                  }
                }
              }
              JOINT lIndex1
              {
                OFFSET 7.75947 0.938293 5.60832
                CHANNELS 3 Zrotation Xrotation Yrotation
                JOINT lIndex2
                {
                  OFFSET 2.54057 -0.884171 1.56538
                  CHANNELS 3 Zrotation Xrotation Yrotation
                  End Site
                  {
                    OFFSET 1.62519 -0.234802 1.16502
                  }
                }
              }
              JOINT lMid1
              {
                OFFSET 8.24714 1.18213 3.41376
                CHANNELS 3 Zrotation Xrotation Yrotation
                JOINT lMid2
                {
                  OFFSET 3.10165 -0.590103 1.0647
                  CHANNELS 3 Zrotation Xrotation Yrotation
                  End Site
                  {
                    OFFSET 2.48547 -0.328903 0.83742
                  }
                }
              }
              JOINT lRing1
              {
                OFFSET 8.82822 0.546677 1.51678
                CHANNELS 3 Zrotation Xrotation Yrotation
                JOINT lRing2
                {
                  OFFSET 2.60934 -0.819778 -0.0198488
                  CHANNELS 3 Zrotation Xrotation Yrotation
                  End Site
                  {
                    OFFSET 2.33842 -0.294052 0.168128
                  }
                }
              }
              JOINT lPinky1
              {
                OFFSET 8.27202 -0.0477905 -0.4584
                CHANNELS 3 Zrotation Xrotation Yrotation
                JOINT lPinky2
                {
                  OFFSET 1.82734 -0.647385 -0.700984
                  CHANNELS 3 Zrotation Xrotation Yrotation
                  End Site
                  {
                    OFFSET 1.69225 -0.51767 -0.607171
                  }
                }
              }
            }
          }
        }
      }
    }
  }
  JOINT rButtock
  {
    OFFSET -8.77824 4.35084 1.2192
    CHANNELS 3 Zrotation Xrotation Yrotation
    JOINT rThigh
    {
      OFFSET 0 -1.70687 -2.19456
      CHANNELS 3 Zrotation Xrotation Yrotation
      JOINT rShin
      {
        OFFSET 0 -36.8199 0.73152
        CHANNELS 3 Zrotation Xrotation Yrotation
        JOINT rFoot
        {
          OFFSET 0.73152 -45.1104 -5.12064
          CHANNELS 3 Zrotation Xrotation Yrotation
          End Site
          {
            OFFSET -1.1221 -3.69964 12.103
          }
        }
      }
    }
  }
  JOINT lButtock
  {
    OFFSET 8.77824 4.35084 1.2192
    CHANNELS 3 Zrotation Xrotation Yrotation
    JOINT lThigh
    {
      OFFSET 0 -1.70687 -2.19456
      CHANNELS 3 Zrotation Xrotation Yrotation
      JOINT lShin
      {
        OFFSET 0 -36.8199 0.73152
        CHANNELS 3 Zrotation Xrotation Yrotation
        JOINT lFoot
        {
          OFFSET -0.73152 -45.1104 -5.12064
          CHANNELS 3 Zrotation Xrotation Yrotation
          End Site
          {
            OFFSET 1.1221 -3.69964 12.103
          }
        }
      }
    }
  }
}
MOTION
Frames:	8
Frame Time:	0.00833333
149.684 85.3326 6.54994 0.0 0.0 0.0 1.16875 -0.00493884 0.0322837 0.322755 -0.00472406 0.0559153 5.66392e-14 0.0 1.2424e-16 1.69843e-13 3.18055e-15 3.07495e-16 -0.0 0.0 0.0 -0.0 0.0 0.0 2.83758e-14 -4.67843e-17 1.98785e-16 5.97708e-13 -6.4605e-16 3.97569e-15 1.02657e-11 -3.10064e-12 -8.90555e-14 1.174e-10 2.89585e-12 4.38917e-13 2.76943e-10 -4.51788e-13 7.41069e-13 4.78266e-10 -7.85597e-13 1.2762e-12 2.76948e-10 -4.50446e-13 7.34708e-13 7.73091 5.47488 0.417314 2.76944e-10 -4.5144e-13 7.4425e-13 2.90554 0.965183 0.102902 2.76955e-10 -4.51341e-13 7.41864e-13 10.2786 0.731801 0.0259123 2.76939e-10 -4.50844e-13 7.4743e-13 2.22167 -0.733487 -0.20892 2.82796e-14 -4.6396e-17 -9.93923e-17 5.94156e-13 -1.04983e-15 2.18663e-15 1.02531e-11 3.03604e-12 -4.45278e-14 1.1742e-10 -3.26593e-12 4.0075e-13 2.76962e-10 -5.02235e-13 7.41069e-13 4.78307e-10 -8.68291e-13 1.27938e-12 2.76956e-10 -5.01335e-13 7.56972e-13 -7.73091 5.47488 -0.417314 2.76963e-10 -5.02329e-13 7.41069e-13 -2.90554 0.965183 -0.102902 2.76951e-10 -5.01732e-13 7.4425e-13 -10.2786 0.731801 -0.0259123 2.76967e-10 -5.00937e-13 7.37889e-13 -2.22167 -0.733487 0.20892 -2.03217e-16 0.0 -3.88251e-19 1.35578 -5.84652 -0.122715 0.00113237 5.03402 0.0414076 -0.480783 0.811083 0.0710794 2.03217e-16 0.0 3.88251e-19 0.426351 -1.91991 0.00997344 0.00899009 -2.0786 0.0740888 0.459361 3.99698 -0.132499
144.805 83.4268 1.84705 60.0849 -85.8243 -55.6346 -0.0566979 -1.69188 0.900991 1.72382 -1.63277 0.383111 -2.81016 3.98182 -1.29951 4.57206 -6.15622 -1.6867 -0.0 0.0 0.0 -0.0 0.0 0.0 4.88145e-15 8.30594e-14 -4.76971e-14 23.391 2.37586 -2.30654 -4.65494 -2.20921 7.16598 0.0110387 2.35884 0.330535 7.28162e-10 4.42657e-10 -7.06227e-10 1.25304e-09 7.68225e-10 -1.22658e-09 7.28165e-10 4.42659e-10 -7.06234e-10 7.73091 5.47488 0.417314 7.28162e-10 4.42659e-10 -7.06226e-10 2.90554 0.965183 0.102902 7.28172e-10 4.42659e-10 -7.06227e-10 10.2786 0.731801 0.0259123 7.28157e-10 4.42661e-10 -7.06222e-10 2.22167 -0.733487 -0.20892 4.78633e-15 8.30599e-14 -4.79692e-14 -25.2309 1.58555 4.9503 6.09791 -3.28434 -8.90412 -0.0353612 4.23932 -0.590291 6.12699e-10 -2.25552e-10 4.81906e-10 1.06427e-09 -3.95523e-10 8.27921e-10 6.12693e-10 -2.25552e-10 4.81917e-10 -7.73091 5.47488 -0.417314 6.12699e-10 -2.25554e-10 4.81905e-10 -2.90554 0.965183 -0.102902 6.12688e-10 -2.25553e-10 4.81906e-10 -10.2786 0.731801 -0.0259123 6.12704e-10 -2.25551e-10 4.81898e-10 -2.22167 -0.733487 0.20892 -2.03217e-16 0.0 -3.88251e-19 1.07736 -10.3109 0.671314 0.0184845 13.3362 0.193307 -0.986059 -5.87161 -3.09736 2.03217e-16 0.0 3.88251e-19 -0.937639 -7.24185 1.10209 -0.0301195 8.51929 -0.114176 0.653616 -3.54599 1.46072
144.832 83.3513 1.49228 31.6619 -86.5735 -26.8113 -1.29158 -3.47912 1.82727 3.2307 -3.35793 0.731814 -5.58495 8.18683 -2.6933 9.00169 -12.6482 -3.53391 -0.0 0.0 0.0 -0.0 0.0 0.0 -2.06077e-14 1.81358e-13 -1.01532e-13 48.327 4.92414 -4.75148 -8.99397 -4.43989 14.7971 -0.00727278 4.89399 0.687718 1.2276e-09 9.38278e-10 -1.50528e-09 2.11049e-09 1.62833e-09 -2.61422e-09 1.2276e-09 9.38282e-10 -1.50529e-09 7.73091 5.47488 0.417314 1.2276e-09 9.38282e-10 -1.50528e-09 2.90554 0.965183 0.102902 1.2276e-09 9.38283e-10 -1.50528e-09 10.2786 0.731801 0.0259123 1.22759e-09 9.38285e-10 -1.50528e-09 2.22167 -0.733487 -0.20892 -2.07036e-14 1.81358e-13 -1.01778e-13 -52.2134 3.28916 10.2382 11.485 -6.52494 -18.4667 0.0236023 8.63237 -1.2132 9.84202e-10 -4.72591e-10 1.0241e-09 1.71282e-09 -8.28753e-10 1.75958e-09 9.84197e-10 -4.7259e-10 1.02411e-09 -7.73091 5.47488 -0.417314 9.84203e-10 -4.72593e-10 1.0241e-09 -2.90554 0.965183 -0.102902 9.84193e-10 -4.72592e-10 1.0241e-09 -10.2786 0.731801 -0.0259123 9.84208e-10 -4.72589e-10 1.02409e-09 -2.22167 -0.733487 0.20892 -2.03217e-16 0.0 -3.88251e-19 0.928252 -15.0287 1.54385 -0.0147958 22.1076 0.370408 -2.33858 -12.8679 -6.57414 2.03217e-16 0.0 3.88251e-19 -2.14594 -12.8645 2.30485 0.00793175 19.7219 -0.329881 1.32192 -11.5027 3.20204
144.875 83.3222 1.3591 16.2409 -86.3532 -11.2178 -2.35368 -5.06102 2.64755 4.5819 -4.88815 1.04082 -7.87893 11.9206 -3.97498 12.5806 -18.4029 -5.30282 -0.0 0.0 0.0 -0.0 0.0 0.0 -4.21074e-14 2.49272e-13 -1.43489e-13 70.749 7.08122 -6.96706 -12.342 -6.21385 21.6152 -0.0490607 7.07557 0.998368 1.6306e-09 1.32887e-09 -2.12016e-09 2.80258e-09 2.30625e-09 -3.68229e-09 1.6306e-09 1.32888e-09 -2.12017e-09 7.73091 5.47488 0.417314 1.6306e-09 1.32888e-09 -2.12017e-09 2.90554 0.965183 0.102902 1.63061e-09 1.32888e-09 -2.12016e-09 10.2786 0.731801 0.0259123 1.63059e-09 1.32888e-09 -2.12016e-09 2.22167 -0.733487 -0.20892 -4.22003e-14 2.49272e-13 -1.43709e-13 -76.5066 4.61475 14.8946 15.324 -8.90289 -27.0196 0.16153 12.7125 -1.81042 1.28417e-09 -6.75653e-10 1.44424e-09 2.2362e-09 -1.18483e-09 2.4812e-09 1.28417e-09 -6.75652e-10 1.44424e-09 -7.73091 5.47488 -0.417314 1.28417e-09 -6.75656e-10 1.44423e-09 -2.90554 0.965183 -0.102902 1.28416e-09 -6.75654e-10 1.44423e-09 -10.2786 0.731801 -0.0259123 1.28418e-09 -6.75651e-10 1.44422e-09 -2.22167 -0.733487 0.20892 -2.03217e-16 0.0 -3.88251e-19 0.911637 -19.2266 2.35711 -0.0978016 29.9397 0.555983 -4.30881 -18.9948 -9.93125 2.03217e-16 0.0 3.88251e-19 -3.03018 -17.8598 3.42521 0.12414 29.7139 -0.560535 2.3515 -18.5721 4.89353
144.85 83.3276 1.44528 17.9966 -86.2618 -13.087 -3.09491 -6.13423 3.1939 5.50356 -5.93168 1.24738 -9.36354 14.4999 -4.90355 14.8496 -22.3767 -6.64565 -0.0 0.0 0.0 -0.0 0.0 0.0 -5.36333e-14 2.41225e-13 -1.55748e-13 86.4612 8.30614 -8.55985 -14.3622 -7.25047 26.2858 -0.0867892 8.3742 1.18545 1.79253e-09 1.45691e-09 -2.27462e-09 3.08126e-09 2.52872e-09 -3.95145e-09 1.79253e-09 1.45692e-09 -2.27463e-09 7.73091 5.47488 0.417314 1.79253e-09 1.45692e-09 -2.27463e-09 2.90554 0.965183 0.102902 1.79253e-09 1.45692e-09 -2.27462e-09 10.2786 0.731801 0.0259123 1.79252e-09 1.45692e-09 -2.27462e-09 2.22167 -0.733487 -0.20892 -5.37139e-14 2.41225e-13 -1.55947e-13 -93.4417 5.14916 17.9222 17.4239 -10.0804 -32.7403 0.325256 16.0147 -2.31185 1.4053e-09 -7.68773e-10 1.55923e-09 2.44668e-09 -1.34804e-09 2.67774e-09 1.4053e-09 -7.68773e-10 1.55923e-09 -7.73091 5.47488 -0.417314 1.4053e-09 -7.68777e-10 1.55922e-09 -2.90554 0.965183 -0.102902 1.40529e-09 -7.68775e-10 1.55922e-09 -10.2786 0.731801 -0.0259123 1.40531e-09 -7.68772e-10 1.55921e-09 -2.22167 -0.733487 0.20892 -2.03217e-16 0.0 -3.88251e-19 0.941072 -22.1364 2.93667 -0.193381 35.4244 0.710816 -6.16573 -23.1786 -12.5114 2.03217e-16 0.0 3.88251e-19 -3.57093 -21.3117 4.20965 0.265331 36.6805 -0.76043 3.34555 -23.4828 6.20612
144.832 83.3307 1.51363 18.3287 -86.1603 -13.4925 -3.43604 -6.49516 3.34544 5.80834 -6.29162 1.3069 -9.89175 15.4753 -5.28661 15.6773 -23.9086 -7.22172 -0.0 0.0 0.0 -0.0 0.0 0.0 -5.13192e-14 8.68749e-14 -1.19948e-13 92.574 8.21113 -9.23566 -14.9806 -7.5185 27.8588 -0.0920653 8.41561 1.19178 1.59836e-09 1.14399e-09 -1.6473e-09 2.74991e-09 1.98648e-09 -2.86455e-09 1.59837e-09 1.14399e-09 -1.64731e-09 7.73091 5.47488 0.417314 1.59837e-09 1.144e-09 -1.64731e-09 2.90554 0.965183 0.102902 1.59837e-09 1.144e-09 -1.64731e-09 10.2786 0.731801 0.0259123 1.59836e-09 1.144e-09 -1.6473e-09 2.22167 -0.733487 -0.20892 -5.13704e-14 8.68741e-14 -1.20128e-13 -99.7664 4.53458 18.5858 17.8589 -10.1593 -34.2224 0.454533 18.4018 -2.68338 1.26292e-09 -6.86656e-10 1.17528e-09 2.19542e-09 -1.20416e-09 2.01519e-09 1.26291e-09 -6.86655e-10 1.17528e-09 -7.73091 5.47488 -0.417314 1.26292e-09 -6.86659e-10 1.17528e-09 -2.90554 0.965183 -0.102902 1.26291e-09 -6.86658e-10 1.17528e-09 -10.2786 0.731801 -0.0259123 1.26292e-09 -6.86655e-10 1.17527e-09 -2.22167 -0.733487 0.20892 -2.03217e-16 0.0 -3.88251e-19 0.894624 -23.2458 3.12329 -0.242119 37.6228 0.78154 -7.04499 -24.8192 -13.6412 2.03217e-16 0.0 3.88251e-19 -3.86762 -22.6177 4.40377 0.337951 39.4142 -0.852384 3.82369 -25.4217 6.7931
144.823 83.3155 1.59535 19.1595 -86.018 -14.3438 -3.50129 -6.34826 3.21367 5.66873 -6.16351 1.26091 -9.78107 15.3103 -5.26455 15.5799 -23.7106 -7.1964 -0.0 0.0 0.0 -0.0 0.0 0.0 -3.91136e-14 -1.70075e-13 -5.01279e-14 91.7952 7.18377 -9.25261 -14.6877 -7.30678 27.2074 -0.0727722 7.56008 1.06887 1.15074e-09 5.19596e-10 -4.68105e-10 1.98432e-09 9.0407e-10 -8.2035e-10 1.15074e-09 5.196e-10 -4.68118e-10 7.73091 5.47488 0.417314 1.15074e-09 5.19601e-10 -4.68114e-10 2.90554 0.965183 0.102902 1.15075e-09 5.19601e-10 -4.68108e-10 10.2786 0.731801 0.0259123 1.15074e-09 5.19603e-10 -4.681e-10 2.22167 -0.733487 -0.20892 -3.91232e-14 -1.70077e-13 -5.02925e-14 -98.5251 3.10867 17.5726 17.2187 -9.57807 -32.6663 0.541663 20.128 -2.95529 9.32931e-10 -4.80385e-10 4.38369e-10 1.61547e-09 -8.42691e-10 7.44896e-10 9.32921e-10 -4.80382e-10 4.38377e-10 -7.73091 5.47488 -0.417314 9.32932e-10 -4.80386e-10 4.3837e-10 -2.90554 0.965183 -0.102902 9.32923e-10 -4.80386e-10 4.38371e-10 -10.2786 0.731801 -0.0259123 9.32934e-10 -4.80384e-10 4.38367e-10 -2.22167 -0.733487 0.20892 -2.03217e-16 0.0 -3.88251e-19 0.762152 -23.0717 3.01432 -0.238272 37.4741 0.778221 -7.0131 -24.699 -13.623 2.03217e-16 0.0 3.88251e-19 -4.03989 -22.3953 4.15244 0.329387 39.1248 -0.843162 3.8055 -25.2531 6.79006
144.806 83.2947 1.67439 19.7172 -85.8437 -14.9552 -3.45416 -6.0033 2.97708 5.34827 -5.84444 1.17505 -9.42322 14.6965 -5.07889 15.131 -22.8132 -6.92583 -0.0 0.0 0.0 -0.0 0.0 0.0 -2.27542e-14 -4.04132e-13 2.29266e-14 88.2976 5.85712 -9.03161 -14.0347 -6.90837 25.7113 -0.0500712 6.38041 0.900391 6.31459e-10 -1.11996e-10 7.12355e-10 1.09504e-09 -1.91079e-10 1.22664e-09 6.31464e-10 -1.11994e-10 7.12339e-10 7.73091 5.47488 0.417314 6.3146e-10 -1.11993e-10 7.12345e-10 2.90554 0.965183 0.102902 6.31467e-10 -1.11994e-10 7.12351e-10 10.2786 0.731801 0.0259123 6.31455e-10 -1.11993e-10 7.12361e-10 2.22167 -0.733487 -0.20892 -2.27239e-14 -4.04135e-13 2.27733e-14 -94.4277 1.55438 15.9953 16.1609 -8.7502 -30.1115 0.596587 21.3164 -3.14412 5.48936e-10 -2.58563e-10 -3.24959e-10 9.41928e-10 -4.53503e-10 -5.70128e-10 5.48924e-10 -2.58559e-10 -3.24946e-10 -7.73091 5.47488 -0.417314 5.48937e-10 -2.58563e-10 -3.24955e-10 -2.90554 0.965183 -0.102902 5.48928e-10 -2.58564e-10 -3.24952e-10 -10.2786 0.731801 -0.0259123 5.48937e-10 -2.58563e-10 -3.24951e-10 -2.22167 -0.733487 0.20892 -2.03217e-16 0.0 -3.88251e-19 0.603663 -22.3927 2.80391 -0.213001 36.3874 0.745034 -6.61312 -23.8728 -13.1481 2.03217e-16 0.0 3.88251e-19 -4.13558 -21.5652 3.77119 0.28833 37.6233 -0.79289 3.56939 -24.2372 6.51834
